HIERARCHY
ROOT root
{
	OFFSET 0.000000 0.000000 0.000000
	CHANNELS 6 Xposition Yposition Zposition Zrotation Yrotation Xrotation
	JOINT lhip
	{
		OFFSET 0.058581 -0.082280 -0.017664
		CHANNELS 3 Zrotation Yrotation Xrotation
		JOINT lknee
		{
			OFFSET 0.043451 -0.386469 0.008037
			CHANNELS 3 Zrotation Yrotation Xrotation
			JOINT lankle
			{
				OFFSET -0.014790 -0.426874 -0.037428
				CHANNELS 3 Zrotation Yrotation Xrotation
				JOINT ltoe
				{
					OFFSET 0.041054 -0.060286 0.122042
					CHANNELS 3 Zrotation Yrotation Xrotation
					End Site
					{
						OFFSET 0.000000 0.000000 0.000000
					}
				}
			}
		}
	}
	JOINT rhip
	{
		OFFSET -0.060310 -0.090513 -0.013543
		CHANNELS 3 Zrotation Yrotation Xrotation
		JOINT rknee
		{
			OFFSET -0.043257 -0.383688 -0.004843
			CHANNELS 3 Zrotation Yrotation Xrotation
			JOINT rankle
			{
				OFFSET 0.019056 -0.420046 -0.034562
				CHANNELS 3 Zrotation Yrotation Xrotation
				JOINT rtoe
				{
					OFFSET -0.034840 -0.062106 0.130323
					CHANNELS 3 Zrotation Yrotation Xrotation
					End Site
					{
						OFFSET 0.000000 0.000000 0.000000
					}
				}
			}
		}
	}
	JOINT lowerback
	{
		OFFSET 0.004439 0.124404 -0.038385
		CHANNELS 3 Zrotation Yrotation Xrotation
		JOINT upperback
		{
			OFFSET 0.004488 0.137956 0.026820
			CHANNELS 3 Zrotation Yrotation Xrotation
			JOINT chest
			{
				OFFSET -0.002265 0.056032 0.002855
				CHANNELS 3 Zrotation Yrotation Xrotation
				JOINT lowerneck
				{
					OFFSET -0.013390 0.211636 -0.033468
					CHANNELS 3 Zrotation Yrotation Xrotation
					JOINT upperneck
					{
						OFFSET 0.010113 0.088937 0.050410
						CHANNELS 3 Zrotation Yrotation Xrotation
						End Site
						{
							OFFSET 0.000000 0.000000 0.000000
						}
					}
				}
				JOINT lclavicle
				{
					OFFSET 0.071702 0.114000 -0.018898
					CHANNELS 3 Zrotation Yrotation Xrotation
					JOINT lshoulder
					{
						OFFSET 0.122921 0.045205 -0.019046
						CHANNELS 3 Zrotation Yrotation Xrotation
						JOINT lelbow
						{
							OFFSET 0.255332 -0.015649 -0.022946
							CHANNELS 3 Zrotation Yrotation Xrotation
							JOINT lwrist
							{
								OFFSET 0.265709 0.012698 -0.007375
								CHANNELS 3 Zrotation Yrotation Xrotation
								End Site
								{
									OFFSET 0.000000 0.000000 0.000000
								}
							}
						}
					}
				}
				JOINT rclavicle
				{
					OFFSET -0.082954 0.112472 -0.023707
					CHANNELS 3 Zrotation Yrotation Xrotation
					JOINT rshoulder
					{
						OFFSET -0.113228 0.046853 -0.008472
						CHANNELS 3 Zrotation Yrotation Xrotation
						JOINT relbow
						{
							OFFSET -0.260127 -0.014369 -0.031269
							CHANNELS 3 Zrotation Yrotation Xrotation
							JOINT rwrist
							{
								OFFSET -0.269108 0.006794 -0.006027
								CHANNELS 3 Zrotation Yrotation Xrotation
								End Site
								{
									OFFSET 0.000000 0.000000 0.000000
								}
							}
						}
					}
				}
			}
		}
	}
}
MOTION
Frames: 13
Frame Time: 0.033333
-0.339454 0.416653 1.075201 -3.770233 -1.198459 83.002372 0.211161 -2.563840 -6.122554 -5.469073 6.111065 24.152311 1.194652 15.539851 -10.229714 0.000000 -0.000000 0.000000 0.648775 1.145470 1.863785 6.520578 7.640208 21.302680 5.698964 1.003096 -4.121515 0.000000 -0.000000 0.000000 1.395774 2.403635 1.963090 0.923877 -3.437349 9.112194 -1.057363 -0.730715 -3.487185 2.668930 2.040648 -0.002617 2.338452 2.842758 14.138228 -30.440534 1.553937 3.911343 -54.208217 -3.809627 9.548811 11.706515 -27.277108 -3.862240 -3.426539 -8.429156 -2.879432 28.170353 2.585687 6.860193 55.178612 2.871210 13.032518 -10.214575 18.303006 -6.694594 4.597722 5.180387 -4.603898 
-0.340250 0.439046 1.073042 -3.767099 -0.809061 82.902629 -0.022035 -2.312589 -3.233012 -5.013543 6.758951 29.422968 1.098787 16.331897 -11.552235 0.000000 -0.000000 0.000000 1.375416 1.774962 0.292131 6.497961 7.158950 21.681093 4.874451 0.731695 -4.285213 0.000000 -0.000000 0.000000 1.543986 1.819019 1.441461 1.230626 -3.231830 9.259346 -1.135257 -0.826099 -3.535694 2.933844 2.322417 0.299970 2.134687 2.881211 13.954210 -30.501084 1.623636 4.065975 -54.523881 -3.777972 9.293648 11.583282 -26.296574 -4.127502 -3.841313 -8.338502 -2.564645 28.230334 2.615558 6.587470 55.014901 2.750152 12.697011 -10.206446 17.914110 -6.832245 4.923948 5.143431 -4.159524 
-0.340237 0.461446 1.071227 -3.636295 -0.436154 82.933373 -0.363974 -2.383085 -0.175302 -5.695523 5.717869 34.205571 0.535514 15.707947 -11.004331 0.000000 -0.000000 0.000000 2.077973 2.451701 -1.295622 6.351789 6.606101 21.767669 3.799434 0.371237 -4.194308 0.000000 -0.000000 0.000000 1.691093 1.103974 0.680202 1.561662 -3.143861 9.547792 -1.234130 -0.940709 -3.727840 3.001584 2.569542 0.819843 1.997268 2.986323 13.682578 -30.778837 1.643905 4.300717 -54.654718 -3.743502 9.155628 11.409317 -25.292213 -4.432049 -4.152725 -8.233558 -2.120018 28.292201 2.579200 6.244871 54.790576 2.559148 12.378979 -10.166945 17.859869 -6.966515 5.374387 5.132860 -3.664492 
-0.339891 0.484421 1.069519 -3.331626 -0.139583 83.112872 -0.725972 -2.563053 2.902558 -6.801032 4.283521 37.895373 -0.531192 14.226442 -8.191506 0.000000 -0.000000 0.000000 2.655269 3.085198 -2.956569 6.073618 5.967972 21.567678 2.683943 -0.001152 -3.806887 0.000000 -0.000000 0.000000 1.682903 0.420084 -0.238002 1.863709 -3.109486 9.862308 -1.268037 -1.100793 -3.889821 3.068676 2.857448 1.253639 1.883417 2.951314 13.518523 -31.043370 1.656826 4.496567 -54.731295 -3.882769 9.119967 11.182433 -24.350097 -4.650730 -4.437778 -8.179644 -1.538667 28.484906 2.449110 5.906582 54.511337 2.391199 12.154556 -10.240393 18.087029 -7.181664 5.735504 5.132872 -3.050805 
-0.339168 0.508888 1.068087 -3.058500 0.028614 83.351981 -1.099875 -2.575138 5.959992 -7.795566 2.830871 40.029923 -1.480214 12.420296 -3.032020 0.000000 -0.000000 0.000000 2.992759 3.679899 -5.040562 5.794136 5.279196 21.742081 1.761553 -0.245380 -2.948030 0.000000 -0.000000 0.000000 1.564372 -0.152120 -1.084101 2.067575 -2.977266 10.302263 -1.295647 -1.211152 -4.128078 3.101661 3.101439 1.470160 1.895839 2.851966 13.365975 -31.205087 1.668993 4.602152 -54.790210 -4.197571 9.205060 11.068007 -23.691111 -4.958704 -4.754255 -8.137177 -0.870658 28.789938 2.290880 5.639133 54.306501 2.299577 12.042350 -10.451759 18.396414 -7.665962 6.034550 5.129887 -2.394730 
-0.337738 0.535131 1.066898 -2.892393 0.132990 83.634283 -1.472693 -2.256341 8.979143 -8.484388 0.977447 39.929308 -1.799356 10.496968 4.550301 0.000000 -0.000000 0.000000 3.111372 4.347714 -7.682660 5.528819 4.530230 22.509790 1.129014 -0.266120 -1.615669 0.000000 -0.000000 0.000000 1.522149 -0.762690 -1.691789 2.158680 -2.672945 10.687200 -1.361972 -1.234875 -4.447214 3.052793 3.259988 1.732308 1.898213 2.758745 12.938592 -31.296003 1.749972 4.628641 -54.871639 -4.506577 9.501242 11.266778 -23.582486 -5.604804 -5.095025 -8.168979 -0.252594 29.025954 2.176915 5.436778 54.298861 2.221575 12.157218 -10.726366 18.711023 -8.296035 6.444515 5.095361 -1.832444 
-0.336568 0.561971 1.064786 -2.723926 0.731649 83.995942 -0.886004 -0.347111 11.323829 -7.403104 -1.736315 37.447158 -4.478159 10.328441 13.526141 0.000000 -0.000000 0.000000 4.018886 5.460340 -10.612040 4.117616 3.578681 23.639189 3.566289 0.200114 -0.484865 0.000000 -0.000000 0.000000 1.762208 -2.125897 -1.776788 2.662824 -1.442855 8.316648 -1.517936 -1.797805 -1.928656 3.349834 3.216250 0.609963 1.015677 3.239461 14.047841 -30.313004 0.474424 4.812472 -56.872594 -3.125506 8.805245 12.840679 -26.154209 -5.105366 -2.969095 -6.051463 -3.941229 27.953045 2.480861 7.069075 55.794272 2.563023 12.765544 -12.306913 22.312928 -3.487714 7.791862 1.184395 -10.906597 
-0.333979 0.591308 1.062931 -1.707040 0.890110 84.351000 -0.821710 0.097969 13.916498 -6.864526 -4.589424 31.460883 -2.589104 11.357878 15.534655 0.000000 -0.000000 0.000000 3.656048 6.001730 -13.195789 4.082531 3.114393 23.761143 3.579721 -0.326703 1.079065 0.000000 -0.000000 0.000000 1.650122 -3.189100 -2.095249 2.656080 -1.241238 8.113899 -1.486477 -2.040645 -1.626683 3.506167 3.393816 0.273986 0.848716 3.039784 14.454715 -29.955266 0.785827 5.023422 -57.383010 -3.783712 9.345624 13.261465 -27.103625 -4.895066 -2.193783 -5.776348 -5.254052 27.618524 2.458616 6.961366 56.651338 2.733572 13.550238 -12.929311 22.790634 -3.255741 7.890617 1.296375 -11.752734 
-0.330864 0.623155 1.060742 -0.359385 0.924028 84.572886 -0.770712 0.338915 15.860608 -6.928251 -9.072541 25.864721 -2.228579 11.056239 11.551521 0.000000 -0.000000 0.000000 3.081605 6.060357 -15.601975 3.751865 2.379471 23.445151 4.440535 -0.801240 2.967534 0.000000 -0.000000 0.000000 1.259358 -4.028387 -1.859145 2.649372 -1.302477 7.554108 -1.377210 -2.268509 -1.150792 3.925866 3.991242 -0.246604 0.602427 2.208858 14.838217 -29.727223 0.788393 5.061478 -57.608108 -4.642588 9.764063 13.579489 -27.689714 -4.969103 -1.805279 -5.836097 -5.866132 27.572306 2.288834 6.693462 57.086246 3.012830 13.983167 -13.211183 23.239091 -2.959304 7.690803 1.346620 -12.116562 
-0.327720 0.658083 1.059113 0.690762 0.866473 84.703446 -0.618205 0.401867 16.350736 -6.850479 -10.690149 22.585041 -2.507353 10.847552 6.965957 0.000000 -0.000000 0.000000 2.365904 6.111835 -17.830515 3.249579 1.502364 22.476762 5.863530 -1.311928 6.086985 0.000000 -0.000000 0.000000 0.732996 -4.551363 -1.024200 2.610156 -1.357227 6.782224 -1.238716 -2.410598 -0.766121 4.181604 4.258030 -0.844333 0.618486 1.656732 15.201798 -29.599655 0.691447 4.988178 -57.614162 -5.528213 10.045207 13.852836 -28.097361 -5.286468 -1.621428 -6.073894 -5.843172 27.716677 2.179013 6.464805 57.383419 3.343478 14.607280 -13.520961 23.516252 -3.342699 7.393499 1.396986 -12.193605 
-0.324705 0.695441 1.059397 1.372464 1.174064 84.144335 0.568474 1.721978 16.704631 -7.129591 -11.647372 19.818856 -1.768301 10.163968 3.841855 0.000000 -0.000000 0.000000 2.224351 5.042675 -18.876319 2.681270 1.075894 20.231835 7.052843 -0.690500 11.121657 0.000000 -0.000000 0.000000 0.642803 -5.024882 1.569188 2.482565 -1.227750 4.936865 -1.149721 -2.463048 -0.357093 4.461149 4.348807 -0.580718 0.599838 1.259831 14.346050 -29.734650 1.245761 4.751599 -56.972997 -6.348678 11.252041 13.488938 -28.989333 -3.899789 0.442529 -5.268307 -7.756412 28.141817 1.574501 6.106103 57.264909 3.768189 15.876785 -13.701258 23.702932 -2.771768 7.385424 1.958053 -13.171780 
-0.321124 0.734971 1.060003 1.561120 1.280663 84.199313 1.266035 2.572265 15.507436 -7.493283 -10.854073 18.246560 -1.581706 9.266318 0.909019 0.000000 -0.000000 0.000000 1.473469 3.905284 -20.189655 2.564539 0.562408 16.874617 9.636307 -0.240168 18.074186 0.000000 -0.000000 0.000000 0.418509 -4.942082 3.035374 2.453200 -1.294780 4.175019 -0.971146 -2.445394 -0.428354 4.306831 4.052461 -0.496619 0.827084 1.265550 14.063778 -29.892833 1.303297 4.733683 -56.539783 -6.902629 11.420007 13.246040 -29.520481 -3.614667 0.818815 -5.653079 -7.443249 28.356444 1.252335 6.024806 56.964283 4.140984 16.139248 -13.464106 24.161313 -2.996307 7.492461 2.171560 -12.633912 
-0.318027 0.773138 1.060135 1.259452 1.170113 84.440717 1.595466 2.923862 13.757574 -8.206208 -10.224911 17.114591 -1.312557 8.375907 -1.049372 0.000000 -0.000000 0.000000 0.834774 2.810726 -21.383566 2.498489 1.294389 13.948451 12.044179 -0.114317 23.413285 0.000000 -0.000000 0.000000 -0.075849 -4.420379 3.609797 2.487365 -1.319559 4.265496 -0.741727 -2.327466 -0.514230 3.955945 3.708058 -0.413121 1.220056 1.323895 13.349659 -29.843421 1.191153 4.761833 -56.234193 -7.339228 11.617722 12.873533 -30.012317 -3.321932 1.165738 -5.854841 -7.331680 28.547964 1.045498 6.148167 56.675818 4.402547 16.246319 -13.445113 25.006843 -3.471412 7.604140 2.273034 -12.051454 
